<svg width="300" height="259" viewBox="0 0 300 259" fill="none" xmlns="http://www.w3.org/2000/svg">
<path d="M67.4396 237.579C119.085 265.143 202.819 265.143 254.465 237.579C306.11 210.016 306.117 165.312 254.465 137.749C202.812 110.185 119.085 110.178 67.4396 137.749C15.7944 165.32 15.7944 210.008 67.4396 237.579Z" fill="#EBEBEB"/>
<path d="M269.656 169.187L262.123 164.807C262.123 164.807 260.276 148.668 261.502 136.171C263.232 118.601 274.576 97.4825 288.102 102.432C301.629 107.381 281.89 125.316 277.51 140.208C273.131 155.099 269.656 169.187 269.656 169.187Z" fill="#B3182A"/>
<path opacity="0.1" d="M269.656 169.187L262.123 164.807C262.123 164.807 260.276 148.668 261.502 136.171C263.232 118.601 274.576 97.4825 288.102 102.432C301.629 107.381 281.89 125.316 277.51 140.208C273.131 155.099 269.656 169.187 269.656 169.187Z" fill="black"/>
<path d="M265.736 167.208C265.665 167.209 265.597 167.184 265.543 167.139C265.49 167.093 265.454 167.03 265.444 166.96C262.882 147.251 269.897 117.461 284.058 106.161C284.087 106.137 284.121 106.12 284.157 106.109C284.193 106.099 284.231 106.095 284.268 106.099C284.305 106.103 284.341 106.115 284.374 106.133C284.407 106.151 284.436 106.175 284.459 106.205C284.508 106.265 284.53 106.342 284.522 106.418C284.514 106.495 284.475 106.565 284.416 106.614C270.408 117.797 263.48 147.353 266.021 166.88C266.031 166.956 266.011 167.034 265.964 167.095C265.918 167.157 265.849 167.197 265.772 167.208H265.736Z" fill="white"/>
<path d="M273.678 172.304L268.32 169.202C268.32 169.202 267.408 158.128 272.839 144.675C277.562 132.995 289.292 123.243 295.19 125.287C301.089 127.331 300.943 131.513 298.066 135.901C295.19 140.288 277.693 150.748 273.678 172.304Z" fill="#B3182A"/>
<path d="M270.357 172.589C270.319 172.587 270.281 172.578 270.247 172.561C270.213 172.544 270.182 172.521 270.157 172.493C270.132 172.464 270.112 172.431 270.1 172.395C270.088 172.358 270.084 172.32 270.087 172.282C271.853 144.719 285.795 131.163 294.175 129.097C294.251 129.079 294.33 129.091 294.397 129.131C294.464 129.17 294.513 129.234 294.533 129.309C294.551 129.384 294.539 129.462 294.499 129.528C294.459 129.593 294.396 129.64 294.321 129.659C285.496 131.849 272.328 146.522 270.678 172.319C270.675 172.358 270.665 172.396 270.647 172.431C270.629 172.466 270.604 172.497 270.574 172.522C270.544 172.547 270.51 172.566 270.472 172.577C270.435 172.589 270.396 172.593 270.357 172.589Z" fill="white"/>
<path d="M52.6801 171.332C52.6801 171.332 53.6801 155.149 44.2781 144.054C34.8761 132.958 22.6346 133.002 18.5833 135.068C14.5319 137.133 11.8092 143.039 18.7804 147.265C25.7515 151.492 40.5772 159.952 43.0445 167.5L52.6801 171.332Z" fill="#B3182A"/>
<path opacity="0.1" d="M52.6801 171.332C52.6801 171.332 53.6801 155.149 44.2781 144.054C34.8761 132.958 22.6346 133.002 18.5833 135.068C14.5319 137.133 11.8092 143.039 18.7804 147.265C25.7515 151.492 40.5772 159.952 43.0445 167.5L52.6801 171.332Z" fill="black"/>
<path d="M48.2562 167.281C48.1659 167.28 48.079 167.246 48.0119 167.186C47.9447 167.125 47.9018 167.042 47.8912 166.953C45.9568 149.046 28.058 139.126 20.9262 138.002C20.8783 137.995 20.8322 137.978 20.7907 137.953C20.7492 137.928 20.713 137.895 20.6841 137.856C20.6553 137.817 20.6345 137.773 20.6228 137.726C20.6111 137.679 20.6088 137.63 20.616 137.582C20.6231 137.534 20.6397 137.488 20.6647 137.447C20.6897 137.405 20.7226 137.369 20.7616 137.34C20.8006 137.311 20.8448 137.291 20.8919 137.279C20.9389 137.267 20.9878 137.265 21.0357 137.272C28.3354 138.418 46.6357 148.565 48.6212 166.872C48.6262 166.92 48.6217 166.969 48.6079 167.015C48.5941 167.061 48.5712 167.104 48.5407 167.142C48.5101 167.179 48.4725 167.21 48.4299 167.232C48.3874 167.255 48.3407 167.269 48.2927 167.274L48.2562 167.281Z" fill="white"/>
<path d="M44.7749 163.171C42.4171 157.799 39.7527 155.39 32.088 156.675C24.4234 157.959 25.5183 157.762 16.1382 155.361C12.1818 154.353 7.7363 154.193 3.94047 155.901C0.735909 157.361 -1.65838 160.281 1.44398 163.39C4.93322 166.865 10.1379 168.055 13.9921 171.113C14.8665 171.732 15.5616 172.57 16.0068 173.544C17.0215 176.128 14.9922 179.041 15.5835 181.749C16.1747 184.457 19.0216 185.903 21.6933 186.078C24.365 186.253 27.0002 185.45 29.6645 185.143C32.3289 184.837 35.3218 185.143 37.1613 187.122C39.1322 189.217 39.1833 192.567 41.0155 194.794C43.7602 198.129 50.5051 199.057 54.1549 196.983L63.7102 191.472C70.0245 182.961 60.0604 176.216 54.8411 169.61C52.3081 166.39 46.191 166.405 44.7749 163.171Z" fill="#B3182A"/>
<path d="M57.7907 186.335C57.7285 186.336 57.6671 186.32 57.6131 186.289C57.5591 186.259 57.5145 186.214 57.4841 186.159C46.5857 168.501 16.9125 159.567 6.41554 158.837C6.31998 158.829 6.23119 158.784 6.16837 158.712C6.10554 158.64 6.07371 158.545 6.07975 158.45C6.08723 158.354 6.13174 158.264 6.20391 158.2C6.27608 158.136 6.37026 158.103 6.46663 158.107C17.1023 158.837 47.0601 167.903 58.1046 185.794C58.1535 185.878 58.1678 185.977 58.1447 186.071C58.1215 186.165 58.0626 186.247 57.9805 186.298C57.9208 186.324 57.8559 186.337 57.7907 186.335Z" fill="white"/>
<path d="M23.2707 178.013C23.2138 178.014 23.1575 178.001 23.1066 177.976C23.0558 177.95 23.0119 177.913 22.9787 177.867C22.9206 177.789 22.8957 177.692 22.9094 177.596C22.9231 177.5 22.9743 177.414 23.0517 177.356C23.4313 177.071 32.4829 170.428 41.3009 170.297C41.3485 170.296 41.3958 170.305 41.44 170.322C41.4843 170.34 41.5245 170.366 41.5585 170.399C41.5925 170.432 41.6195 170.472 41.638 170.516C41.6564 170.56 41.6659 170.607 41.6659 170.655C41.6668 170.703 41.6584 170.75 41.6409 170.795C41.6235 170.84 41.5974 170.88 41.5642 170.915C41.5309 170.949 41.4912 170.977 41.4473 170.996C41.4034 171.016 41.3561 171.026 41.3082 171.027C32.7457 171.151 23.5992 177.874 23.5043 177.94C23.4384 177.993 23.355 178.019 23.2707 178.013Z" fill="white"/>
<path d="M57.1132 192.54C57.1912 193.601 57.518 194.629 58.0671 195.541C58.6162 196.453 59.3722 197.223 60.274 197.788L148.841 248.922C149.82 249.419 150.903 249.678 152.002 249.678C153.1 249.678 154.183 249.419 155.162 248.922L276.337 178.955C277.292 178.451 278.092 177.696 278.649 176.771C279.207 175.846 279.502 174.786 279.502 173.706C279.502 172.626 279.207 171.567 278.649 170.642C278.092 169.717 277.292 168.962 276.337 168.458L187.777 117.36C186.798 116.863 185.715 116.604 184.617 116.604C183.518 116.604 182.435 116.863 181.456 117.36L60.274 187.306C59.3741 187.87 58.6193 188.637 58.0703 189.546C57.5212 190.455 57.1934 191.481 57.1132 192.54Z" fill="#37474F"/>
<path d="M93.6543 168.019L60.2729 187.305C59.3178 187.809 58.5183 188.564 57.9607 189.489C57.403 190.414 57.1084 191.473 57.1084 192.553C57.1084 193.633 57.403 194.693 57.9607 195.618C58.5183 196.543 59.3178 197.298 60.2729 197.802L148.84 248.936C149.814 249.445 150.902 249.696 152.001 249.666V168.019H93.6543Z" fill="#263238"/>
<path d="M54.1418 187.408C53.262 186.808 52.5355 186.01 52.0207 185.078C51.5059 184.146 51.2173 183.106 51.1781 182.042V76.3504C51.2369 75.2535 51.5538 74.186 52.103 73.2346C52.6522 72.2833 53.4183 71.4751 54.3388 70.8757L175.513 0.908272C176.428 0.334551 177.482 0.0208963 178.561 0.00100837C179.641 -0.0188795 180.705 0.255748 181.641 0.79539C182.576 1.33503 183.346 2.11929 183.869 3.06389C184.392 4.00849 184.648 5.07773 184.609 6.15673V111.856C184.549 112.953 184.232 114.02 183.682 114.971C183.133 115.922 182.368 116.731 181.448 117.331L60.2735 187.306C59.3311 187.802 58.285 188.071 57.2198 188.088C56.1546 188.106 55.1001 187.873 54.1418 187.408Z" fill="#455A64"/>
<path d="M66.0109 81.2633L52.105 73.2337C51.5512 74.1811 51.2473 75.2536 51.2218 76.3507V182.043C51.261 183.107 51.5496 184.146 52.0644 185.078C52.5792 186.01 53.3057 186.808 54.1854 187.408C55.144 187.87 56.1977 188.1 57.2616 188.08C58.3254 188.059 59.3696 187.789 60.3099 187.291L74.1354 179.313L66.0109 81.2633Z" fill="#263238"/>
<path d="M57.1132 79.7816V185.466C57.1132 187.481 58.5293 188.299 60.274 187.291L181.449 117.331C182.368 116.731 183.134 115.923 183.683 114.971C184.232 114.02 184.549 112.953 184.609 111.856V6.16441C184.609 4.1497 183.193 3.33213 181.449 4.33949L60.274 74.3069C59.3534 74.9063 58.5873 75.7145 58.0381 76.6658C57.4889 77.6172 57.172 78.6847 57.1132 79.7816Z" fill="#37474F"/>
<path d="M60.2729 190.955L148.84 242.052C149.819 242.549 150.902 242.808 152.001 242.808C153.099 242.808 154.182 242.549 155.161 242.052L276.336 172.085C278.088 171.078 278.088 169.443 276.336 168.435L187.776 117.337C186.797 116.841 185.714 116.582 184.616 116.582C183.517 116.582 182.434 116.841 181.455 117.337L60.2729 187.305C58.5209 188.298 58.5209 189.933 60.2729 190.955Z" fill="#455A64"/>
<path d="M61.9746 80.1687L179.755 12.1722C180.799 11.5664 181.653 12.0554 181.653 13.2672V104.754C181.616 105.412 181.425 106.052 181.095 106.623C180.766 107.193 180.307 107.678 179.755 108.039L61.9746 176.035C60.9235 176.641 60.0767 176.152 60.0767 174.94V83.4536C60.1118 82.7952 60.302 82.1545 60.6318 81.5836C60.9617 81.0127 61.4218 80.5279 61.9746 80.1687Z" fill="white"/>
<path d="M70.5513 188.203L183.032 123.236C183.522 122.987 184.063 122.858 184.612 122.858C185.162 122.858 185.703 122.987 186.193 123.236L191.952 126.557C192.143 126.622 192.309 126.744 192.426 126.908C192.543 127.072 192.606 127.268 192.606 127.469C192.606 127.671 192.543 127.867 192.426 128.031C192.309 128.194 192.143 128.317 191.952 128.382L79.4496 193.342C78.9598 193.59 78.4184 193.719 77.8693 193.719C77.3201 193.719 76.7787 193.59 76.2889 193.342L70.5513 190.028C70.3607 189.963 70.1951 189.84 70.0778 189.676C69.9605 189.513 69.8974 189.317 69.8974 189.115C69.8974 188.914 69.9605 188.718 70.0778 188.554C70.1951 188.39 70.3607 188.267 70.5513 188.203Z" fill="#263238"/>
<path d="M85.3841 196.796L197.858 131.829C198.349 131.58 198.891 131.451 199.442 131.451C199.992 131.451 200.535 131.58 201.026 131.829L236.407 152.268C236.598 152.332 236.763 152.455 236.881 152.619C236.998 152.782 237.061 152.979 237.061 153.18C237.061 153.381 236.998 153.578 236.881 153.741C236.763 153.905 236.598 154.028 236.407 154.093L124.058 218.928C123.567 219.177 123.024 219.306 122.474 219.306C121.923 219.306 121.381 219.177 120.89 218.928L85.3841 198.584C85.2026 198.515 85.0464 198.393 84.9361 198.233C84.8258 198.073 84.7667 197.884 84.7667 197.69C84.7667 197.496 84.8258 197.306 84.9361 197.147C85.0464 196.987 85.2026 196.864 85.3841 196.796Z" fill="#263238"/>
<path d="M186.208 161.027L189.734 158.991C189.88 158.903 189.872 158.764 189.734 158.669L185.661 156.319C185.574 156.274 185.477 156.251 185.379 156.251C185.282 156.251 185.185 156.274 185.098 156.319L181.58 158.356C181.427 158.443 181.434 158.582 181.58 158.677L185.653 161.027C185.739 161.071 185.834 161.094 185.931 161.094C186.027 161.094 186.122 161.071 186.208 161.027ZM179.259 152.998L175.74 155.034C175.587 155.115 175.594 155.261 175.74 155.355L179.813 157.706C179.9 157.751 179.997 157.774 180.095 157.774C180.192 157.774 180.289 157.751 180.376 157.706L183.901 155.669C184.047 155.582 184.04 155.436 183.901 155.348L179.821 152.998C179.734 152.953 179.638 152.929 179.54 152.929C179.442 152.929 179.346 152.953 179.259 152.998ZM167.886 159.567L161.922 163.005C161.776 163.093 161.783 163.239 161.922 163.334L165.995 165.684C166.082 165.729 166.178 165.753 166.276 165.753C166.374 165.753 166.47 165.729 166.557 165.684L172.514 162.246C172.667 162.159 172.652 162.013 172.514 161.925L168.441 159.567C168.355 159.523 168.26 159.499 168.163 159.499C168.067 159.499 167.971 159.523 167.886 159.567ZM174.112 155.969L170.594 158.005C170.441 158.093 170.448 158.239 170.594 158.326L174.667 160.677C174.754 160.722 174.85 160.745 174.948 160.745C175.046 160.745 175.142 160.722 175.229 160.677L178.755 158.64C178.901 158.553 178.894 158.414 178.755 158.319L174.674 155.918C174.588 155.873 174.491 155.849 174.393 155.849C174.296 155.849 174.199 155.873 174.112 155.918V155.969ZM160.294 163.947L156.776 165.976C156.622 166.064 156.637 166.21 156.776 166.305L160.849 168.655C160.935 168.698 161.03 168.721 161.126 168.721C161.223 168.721 161.318 168.698 161.404 168.655L164.929 166.619C165.075 166.531 165.068 166.385 164.929 166.298L160.856 163.947C160.769 163.902 160.673 163.879 160.575 163.879C160.477 163.879 160.381 163.902 160.294 163.947ZM155.184 166.918L151.666 168.955C151.513 169.035 151.527 169.181 151.666 169.276L155.739 171.626C155.826 171.671 155.922 171.695 156.02 171.695C156.118 171.695 156.214 171.671 156.301 171.626L159.827 169.59C159.973 169.502 159.966 169.356 159.827 169.269L155.71 166.867C155.623 166.822 155.527 166.799 155.429 166.799C155.331 166.799 155.235 166.822 155.148 166.867L155.184 166.918ZM171.207 176.481L174.726 174.444C174.879 174.356 174.864 174.218 174.726 174.123L170.652 171.772C170.567 171.728 170.472 171.704 170.375 171.704C170.278 171.704 170.183 171.728 170.098 171.772L166.572 173.809C166.426 173.897 166.433 174.035 166.572 174.13L170.645 176.481C170.73 176.514 170.821 176.528 170.912 176.522C171.003 176.515 171.091 176.489 171.171 176.444L171.207 176.481ZM166.054 179.452L169.579 177.415C169.725 177.335 169.718 177.189 169.579 177.094L165.506 174.743C165.419 174.699 165.323 174.675 165.225 174.675C165.127 174.675 165.031 174.699 164.944 174.743L161.426 176.78C161.272 176.868 161.287 177.014 161.426 177.101L165.499 179.452C165.582 179.485 165.672 179.499 165.762 179.493C165.852 179.486 165.939 179.46 166.017 179.415L166.054 179.452ZM160.907 182.423L164.433 180.393C164.579 180.306 164.572 180.16 164.433 180.065L160.36 177.714C160.272 177.671 160.176 177.649 160.079 177.649C159.981 177.649 159.885 177.671 159.798 177.714L156.279 179.751C156.126 179.839 156.141 179.985 156.279 180.072L160.345 182.423C160.43 182.456 160.521 182.47 160.612 182.464C160.703 182.457 160.791 182.431 160.871 182.386L160.907 182.423ZM155.798 185.394L159.323 183.364C159.469 183.277 159.462 183.131 159.323 183.036L155.25 180.685C155.163 180.64 155.067 180.617 154.969 180.617C154.871 180.617 154.775 180.64 154.688 180.685L151.17 182.715C151.016 182.802 151.024 182.948 151.17 183.043L155.243 185.394C155.402 185.445 155.575 185.432 155.725 185.357L155.798 185.394ZM181.135 164.049L184.66 162.013C184.806 161.932 184.799 161.786 184.66 161.692L180.587 159.341C180.5 159.298 180.404 159.275 180.306 159.275C180.209 159.275 180.113 159.298 180.025 159.341L176.507 161.378C176.353 161.465 176.361 161.611 176.507 161.699L180.58 164.049C180.659 164.076 180.742 164.087 180.825 164.081C180.907 164.074 180.988 164.051 181.062 164.013L181.135 164.049ZM176.39 173.539L184.244 168.999C184.39 168.918 184.383 168.772 184.244 168.677L174.353 162.969C174.266 162.924 174.17 162.901 174.072 162.901C173.974 162.901 173.878 162.924 173.791 162.969L169.733 165.319C169.579 165.4 169.594 165.546 169.733 165.641L174.974 168.663C175.134 168.758 175.142 168.904 174.974 168.991L171.667 170.787C171.521 170.867 171.528 171.013 171.667 171.108L175.755 173.437C175.839 173.487 175.934 173.517 176.031 173.523C176.129 173.53 176.227 173.512 176.317 173.473L176.39 173.539ZM150.075 169.889L146.556 171.926C146.403 172.013 146.41 172.152 146.556 172.247L150.629 174.597C150.716 174.642 150.813 174.666 150.91 174.666C151.008 174.666 151.105 174.642 151.191 174.597L154.717 172.561C154.863 172.473 154.856 172.334 154.717 172.24L150.644 169.889C150.551 169.824 150.441 169.786 150.328 169.78C150.215 169.773 150.102 169.799 150.002 169.853L150.075 169.889ZM144.965 172.86L141.33 174.897C141.184 174.984 141.191 175.13 141.33 175.218L145.403 177.568C145.49 177.613 145.586 177.637 145.684 177.637C145.782 177.637 145.878 177.613 145.965 177.568L149.491 175.532C149.637 175.451 149.629 175.305 149.491 175.211L145.388 172.838C145.306 172.796 145.216 172.772 145.123 172.77C145.031 172.767 144.939 172.786 144.855 172.824L144.965 172.86ZM119.109 206.147C119.196 206.191 119.293 206.215 119.39 206.215C119.488 206.215 119.585 206.191 119.671 206.147L123.197 204.11C123.343 204.03 123.336 203.884 123.197 203.789L119.109 201.453C119.022 201.408 118.926 201.385 118.828 201.385C118.731 201.385 118.634 201.408 118.547 201.453L115.029 203.49C114.876 203.577 114.883 203.723 115.029 203.811L119.109 206.147ZM103.656 196.599L100.13 198.635C99.9842 198.723 99.9915 198.861 100.13 198.956L104.203 201.307C104.29 201.352 104.387 201.375 104.484 201.375C104.582 201.375 104.679 201.352 104.765 201.307L108.291 199.27C108.437 199.183 108.43 199.044 108.291 198.949L104.218 196.599C104.134 196.557 104.042 196.536 103.948 196.536C103.854 196.536 103.762 196.557 103.678 196.599H103.656ZM111.941 203.57C112.028 203.615 112.124 203.638 112.222 203.638C112.32 203.638 112.416 203.615 112.503 203.57L116.022 201.533C116.175 201.453 116.16 201.307 116.022 201.212L111.956 198.861C111.869 198.817 111.772 198.793 111.675 198.793C111.577 198.793 111.48 198.817 111.394 198.861L107.868 200.898C107.722 200.986 107.729 201.132 107.868 201.219L111.941 203.57ZM128.197 207.95L131.723 205.913C131.869 205.825 131.862 205.687 131.723 205.592L127.65 203.241C127.563 203.196 127.467 203.173 127.369 203.173C127.271 203.173 127.175 203.196 127.088 203.241L123.569 205.278C123.416 205.358 123.431 205.504 123.569 205.599L127.635 207.95C127.724 207.999 127.824 208.026 127.926 208.027C128.028 208.029 128.129 208.004 128.219 207.957L128.197 207.95ZM122.489 210.869C122.576 210.914 122.672 210.938 122.77 210.938C122.868 210.938 122.964 210.914 123.051 210.869L126.577 208.833C126.723 208.753 126.716 208.607 126.577 208.512L122.504 206.161C122.417 206.116 122.32 206.093 122.223 206.093C122.125 206.093 122.029 206.116 121.942 206.161L118.423 208.198C118.27 208.285 118.277 208.431 118.423 208.519L122.489 210.869ZM108.802 193.584L105.284 195.62C105.13 195.701 105.138 195.847 105.284 195.942L109.357 198.292C109.444 198.337 109.54 198.36 109.638 198.36C109.736 198.36 109.832 198.337 109.919 198.292L113.445 196.256C113.591 196.168 113.583 196.022 113.445 195.934L109.372 193.584C109.283 193.548 109.188 193.533 109.093 193.541C108.998 193.549 108.906 193.578 108.824 193.628L108.802 193.584ZM134.541 178.729L131.015 180.758C130.869 180.846 130.876 180.992 131.015 181.079L135.088 183.437C135.176 183.48 135.272 183.503 135.369 183.503C135.467 183.503 135.563 183.48 135.65 183.437L139.169 181.408C139.322 181.32 139.315 181.174 139.169 181.079L135.096 178.729C135.009 178.696 134.916 178.682 134.824 178.69C134.732 178.697 134.643 178.726 134.563 178.773L134.541 178.729ZM114 190.657L110.481 192.686C110.328 192.774 110.335 192.92 110.481 193.014L114.554 195.365C114.642 195.408 114.738 195.431 114.835 195.431C114.933 195.431 115.029 195.408 115.116 195.365L118.642 193.328C118.788 193.241 118.781 193.095 118.642 193.007L114.569 190.649C114.48 190.606 114.382 190.584 114.283 190.586C114.185 190.587 114.087 190.611 114 190.657ZM139.738 175.795L136.183 177.817C136.037 177.904 136.045 178.05 136.183 178.138L140.257 180.488C140.343 180.533 140.44 180.556 140.538 180.556C140.635 180.556 140.732 180.533 140.819 180.488L144.337 178.459C144.49 178.371 144.483 178.225 144.337 178.13L140.278 175.809C140.191 175.763 140.094 175.737 139.995 175.734C139.897 175.732 139.799 175.752 139.709 175.795H139.738ZM129.446 181.744L125.92 183.773C125.774 183.861 125.781 184.007 125.92 184.102L129.993 186.452C130.081 186.495 130.177 186.518 130.274 186.518C130.372 186.518 130.468 186.495 130.555 186.452L134.074 184.423C134.227 184.335 134.212 184.189 134.074 184.094L130.008 181.744C129.917 181.696 129.815 181.671 129.712 181.671C129.609 181.671 129.508 181.696 129.416 181.744H129.446ZM124.292 184.715L120.774 186.744C120.62 186.832 120.635 186.978 120.774 187.073L124.847 189.423C124.934 189.466 125.03 189.489 125.128 189.489C125.225 189.489 125.322 189.466 125.409 189.423L128.927 187.394C129.073 187.306 129.066 187.16 128.927 187.065L124.854 184.715C124.763 184.667 124.662 184.642 124.559 184.642C124.456 184.642 124.354 184.667 124.263 184.715H124.292ZM119.109 187.686L115.591 189.715C115.438 189.803 115.452 189.949 115.591 190.043L119.657 192.394C119.744 192.439 119.84 192.462 119.938 192.462C120.036 192.462 120.132 192.439 120.219 192.394L123.745 190.365C123.891 190.277 123.883 190.131 123.745 190.036L119.671 187.686C119.584 187.643 119.488 187.62 119.39 187.62C119.293 187.62 119.197 187.643 119.109 187.686ZM145.425 191.336L148.943 189.306C149.096 189.219 149.089 189.073 148.943 188.978L144.863 186.576C144.775 186.533 144.679 186.511 144.582 186.511C144.484 186.511 144.388 186.533 144.301 186.576L140.775 188.605C140.629 188.693 140.636 188.839 140.775 188.934L144.848 191.284C144.936 191.335 145.036 191.363 145.138 191.366C145.24 191.368 145.341 191.345 145.432 191.299L145.425 191.336ZM190.646 146.428L187.12 148.465C186.974 148.552 186.982 148.691 187.12 148.786L191.194 151.136C191.281 151.181 191.377 151.204 191.475 151.204C191.572 151.204 191.669 151.181 191.756 151.136L195.274 149.1C195.427 149.012 195.42 148.873 195.274 148.778L191.201 146.428C191.115 146.384 191.02 146.362 190.924 146.362C190.827 146.362 190.732 146.384 190.646 146.428ZM184.412 150.027L180.894 152.063C180.741 152.144 180.755 152.29 180.894 152.384L184.96 154.735C185.047 154.778 185.143 154.801 185.241 154.801C185.338 154.801 185.434 154.778 185.522 154.735L189.048 152.698C189.194 152.611 189.186 152.465 189.048 152.377L184.974 150.027C184.889 149.975 184.793 149.945 184.694 149.938C184.595 149.932 184.496 149.95 184.405 149.99L184.412 150.027ZM195.792 143.457L192.274 145.494C192.121 145.574 192.128 145.72 192.274 145.815L196.347 148.165C196.434 148.21 196.53 148.233 196.628 148.233C196.726 148.233 196.822 148.21 196.909 148.165L200.435 146.129C200.581 146.041 200.574 145.895 200.435 145.807L196.362 143.457C196.273 143.399 196.17 143.365 196.064 143.358C195.958 143.352 195.851 143.373 195.756 143.42L195.792 143.457ZM169.149 170.933L172.674 168.896C172.82 168.809 172.813 168.663 172.674 168.575L168.601 166.225C168.514 166.18 168.418 166.156 168.32 166.156C168.222 166.156 168.126 166.18 168.039 166.225L164.521 168.261C164.367 168.342 164.375 168.488 164.521 168.582L168.594 170.933C168.682 170.97 168.777 170.986 168.872 170.979C168.967 170.973 169.059 170.945 169.141 170.896L169.149 170.933ZM201.501 140.501C201.414 140.456 201.318 140.432 201.22 140.432C201.122 140.432 201.026 140.456 200.939 140.501L197.42 142.537C197.267 142.618 197.274 142.763 197.42 142.858L201.493 145.209C201.581 145.252 201.677 145.274 201.775 145.274C201.872 145.274 201.968 145.252 202.056 145.209L205.581 143.172C205.727 143.085 205.72 142.939 205.581 142.851L201.501 140.501ZM150.578 188.328L154.104 186.299C154.25 186.211 154.243 186.065 154.104 185.97L150.009 183.656C149.922 183.611 149.826 183.588 149.728 183.588C149.63 183.588 149.534 183.611 149.447 183.656L145.928 185.686C145.775 185.773 145.782 185.919 145.928 186.014L150.002 188.365C150.094 188.405 150.194 188.422 150.294 188.416C150.395 188.409 150.492 188.379 150.578 188.328ZM213.699 151.888L217.224 149.851C217.37 149.771 217.363 149.625 217.224 149.53L213.129 147.158C213.042 147.113 212.946 147.09 212.848 147.09C212.75 147.09 212.654 147.113 212.567 147.158L209.049 149.195C208.895 149.282 208.903 149.428 209.049 149.516L213.122 151.866C213.209 151.917 213.307 151.945 213.407 151.949C213.508 151.953 213.608 151.932 213.699 151.888ZM202.749 151.501L206.275 149.465C206.421 149.377 206.413 149.238 206.275 149.143L202.202 146.793C202.115 146.748 202.018 146.725 201.921 146.725C201.823 146.725 201.726 146.748 201.639 146.793L198.121 148.83C197.968 148.917 197.975 149.056 198.121 149.151L202.194 151.501C202.276 151.548 202.366 151.576 202.46 151.582C202.554 151.589 202.648 151.573 202.734 151.538L202.749 151.501ZM207.326 143.822C207.239 143.777 207.143 143.754 207.045 143.754C206.947 143.754 206.851 143.777 206.764 143.822L203.245 145.859C203.092 145.939 203.099 146.085 203.245 146.18L207.319 148.53C207.406 148.575 207.502 148.598 207.6 148.598C207.697 148.598 207.794 148.575 207.881 148.53L211.406 146.494C211.552 146.406 211.545 146.26 211.406 146.172L207.326 143.822ZM208.414 143.194L218.297 148.903C218.384 148.947 218.481 148.971 218.578 148.971C218.676 148.971 218.773 148.947 218.859 148.903L222.385 146.866C222.531 146.778 222.524 146.64 222.385 146.545L212.494 140.836C212.407 140.792 212.311 140.768 212.213 140.768C212.115 140.768 212.019 140.792 211.932 140.836L208.414 142.873C208.224 142.953 208.238 143.099 208.399 143.194H208.414ZM196.471 149.764L192.946 151.8C192.8 151.888 192.807 152.034 192.946 152.122L197.019 154.472C197.106 154.517 197.202 154.54 197.3 154.54C197.398 154.54 197.494 154.517 197.581 154.472L201.099 152.436C201.253 152.355 201.245 152.209 201.099 152.114L197.026 149.764C196.943 149.72 196.851 149.696 196.758 149.694C196.664 149.691 196.571 149.71 196.486 149.749L196.471 149.764ZM157.732 172.13L154.192 174.167C154.046 174.254 154.053 174.4 154.192 174.488L158.265 176.838C158.352 176.883 158.448 176.907 158.546 176.907C158.644 176.907 158.74 176.883 158.827 176.838L162.345 174.802C162.499 174.721 162.491 174.575 162.345 174.481L158.272 172.13C158.187 172.084 158.093 172.059 157.996 172.056C157.9 172.054 157.804 172.074 157.717 172.115L157.732 172.13ZM208.005 154.859C208.092 154.904 208.188 154.927 208.286 154.927C208.384 154.927 208.48 154.904 208.567 154.859L212.093 152.822C212.239 152.742 212.231 152.596 212.093 152.501L208.019 150.151C207.932 150.108 207.836 150.085 207.738 150.085C207.641 150.085 207.545 150.108 207.457 150.151L203.939 152.187C203.786 152.275 203.793 152.421 203.939 152.509L208.005 154.859ZM162.878 169.159L159.36 171.196C159.206 171.283 159.214 171.422 159.36 171.517L163.433 173.867C163.52 173.912 163.616 173.936 163.714 173.936C163.812 173.936 163.908 173.912 163.995 173.867L167.521 171.831C167.667 171.743 167.66 171.604 167.521 171.51L163.448 169.159C163.359 169.108 163.259 169.08 163.157 169.078C163.055 169.075 162.954 169.098 162.864 169.145L162.878 169.159ZM124.292 203.19C124.379 203.235 124.475 203.258 124.573 203.258C124.671 203.258 124.767 203.235 124.854 203.19L128.38 201.154C128.526 201.066 128.519 200.927 128.38 200.832L124.307 198.482C124.22 198.437 124.123 198.414 124.026 198.414C123.928 198.414 123.832 198.437 123.745 198.482L120.226 200.519C120.073 200.606 120.087 200.745 120.226 200.84L124.292 203.19ZM116.554 195.891L113.029 197.927C112.883 198.015 112.89 198.153 113.029 198.248L117.102 200.599C117.189 200.644 117.285 200.667 117.383 200.667C117.481 200.667 117.577 200.644 117.664 200.599L121.182 198.562C121.336 198.475 121.328 198.336 121.182 198.241L117.109 195.891C117.021 195.845 116.924 195.82 116.825 195.82C116.725 195.82 116.628 195.845 116.54 195.891H116.554ZM130.008 200.219L133.526 198.183C133.672 198.095 133.665 197.949 133.526 197.861L129.453 195.511C129.366 195.466 129.27 195.443 129.172 195.443C129.074 195.443 128.978 195.466 128.891 195.511L125.336 197.526C125.19 197.606 125.197 197.752 125.336 197.847L129.409 200.197C129.497 200.249 129.596 200.279 129.698 200.282C129.8 200.286 129.902 200.264 129.993 200.219H130.008ZM135.154 197.248L138.672 195.212C138.826 195.124 138.811 194.978 138.672 194.89L134.607 192.54C134.52 192.495 134.423 192.472 134.326 192.472C134.228 192.472 134.131 192.495 134.044 192.54L130.519 194.569C130.373 194.657 130.38 194.803 130.519 194.898L134.592 197.248C134.681 197.294 134.78 197.318 134.88 197.318C134.981 197.318 135.079 197.294 135.169 197.248H135.154ZM140.264 194.27L143.782 192.241C143.936 192.153 143.928 192.007 143.782 191.92L139.709 189.562C139.622 189.519 139.525 189.496 139.428 189.496C139.331 189.496 139.234 189.519 139.147 189.562L135.621 191.591C135.475 191.679 135.483 191.825 135.621 191.92L139.694 194.27C139.784 194.319 139.884 194.344 139.986 194.344C140.088 194.344 140.189 194.319 140.278 194.27H140.264ZM121.664 192.92L118.138 194.956C117.992 195.036 118 195.182 118.138 195.277L122.212 197.628C122.299 197.673 122.395 197.696 122.493 197.696C122.591 197.696 122.687 197.673 122.774 197.628L126.3 195.591C126.446 195.504 126.438 195.358 126.3 195.27L122.226 192.92C122.142 192.878 122.05 192.857 121.956 192.857C121.863 192.857 121.77 192.878 121.686 192.92H121.664ZM126.811 189.949L123.292 191.978C123.139 192.065 123.146 192.212 123.292 192.306L127.365 194.657C127.453 194.7 127.549 194.722 127.646 194.722C127.744 194.722 127.84 194.7 127.927 194.657L131.519 192.635C131.665 192.547 131.657 192.401 131.519 192.314L127.446 189.963C127.354 189.907 127.249 189.876 127.141 189.874C127.033 189.871 126.927 189.897 126.832 189.949H126.811ZM147.403 178.065L143.928 180.094C143.782 180.182 143.79 180.328 143.928 180.423L148.001 182.773C148.089 182.816 148.185 182.839 148.282 182.839C148.38 182.839 148.476 182.816 148.564 182.773L152.082 180.744C152.235 180.656 152.221 180.51 152.082 180.415L148.016 178.065C147.926 178.015 147.824 177.989 147.72 177.989C147.617 177.989 147.515 178.015 147.425 178.065H147.403ZM142.249 181.036L138.731 183.065C138.585 183.153 138.592 183.299 138.731 183.393L142.804 185.744C142.892 185.787 142.988 185.81 143.085 185.81C143.183 185.81 143.279 185.787 143.366 185.744L146.885 183.715C147.038 183.627 147.023 183.481 146.885 183.386L142.811 181.036C142.727 180.996 142.635 180.975 142.541 180.975C142.448 180.975 142.356 180.996 142.271 181.036H142.249ZM152.549 175.086L149.038 177.123C148.892 177.211 148.899 177.357 149.038 177.444L153.111 179.802C153.199 179.845 153.295 179.868 153.392 179.868C153.49 179.868 153.586 179.845 153.673 179.802L157.192 177.765C157.345 177.685 157.338 177.539 157.192 177.444L153.119 175.094C153.034 175.052 152.94 175.029 152.846 175.028C152.751 175.027 152.657 175.047 152.571 175.086H152.549ZM131.957 186.978L128.438 189.007C128.285 189.095 128.292 189.241 128.438 189.335L132.512 191.686C132.599 191.729 132.695 191.751 132.793 191.751C132.89 191.751 132.986 191.729 133.074 191.686L136.599 189.649C136.745 189.562 136.738 189.416 136.599 189.328L132.526 186.97C132.44 186.931 132.346 186.911 132.252 186.912C132.157 186.913 132.064 186.936 131.979 186.978H131.957ZM137.103 184.007L133.585 186.036C133.431 186.124 133.446 186.27 133.585 186.364L137.658 188.715C137.743 188.76 137.839 188.783 137.935 188.783C138.032 188.783 138.127 188.76 138.213 188.715L141.738 186.686C141.884 186.598 141.877 186.452 141.738 186.357L137.665 184.007C137.581 183.967 137.488 183.946 137.395 183.946C137.302 183.946 137.209 183.967 137.125 184.007H137.103ZM133.351 204.986L136.869 202.949C137.015 202.862 137.008 202.716 136.869 202.628L132.796 200.278C132.709 200.233 132.613 200.209 132.515 200.209C132.417 200.209 132.321 200.233 132.234 200.278L128.716 202.314C128.562 202.395 128.577 202.541 128.716 202.635L132.789 204.986C132.879 205.034 132.979 205.06 133.081 205.06C133.183 205.06 133.283 205.034 133.373 204.986H133.351ZM103.167 201.905L99.0936 199.555C99.0067 199.51 98.9104 199.487 98.8126 199.487C98.7148 199.487 98.6185 199.51 98.5315 199.555L95.0204 201.606C94.8744 201.694 94.8817 201.832 95.0204 201.927L99.0936 204.278C99.1805 204.323 99.2769 204.346 99.3747 204.346C99.4724 204.346 99.5688 204.323 99.6557 204.278L103.174 202.241C103.335 202.176 103.327 202.03 103.167 201.905ZM110.875 204.168L106.802 201.818C106.716 201.775 106.621 201.752 106.525 201.752C106.428 201.752 106.333 201.775 106.247 201.818L100.86 204.964C100.714 205.052 100.721 205.198 100.86 205.285L104.933 207.636C105.02 207.681 105.117 207.704 105.214 207.704C105.312 207.704 105.409 207.681 105.495 207.636L110.912 204.511C111.08 204.438 111.036 204.292 110.875 204.198V204.168ZM96.9183 197.358L92.8305 195.036C92.7436 194.992 92.6472 194.968 92.5495 194.968C92.4517 194.968 92.3553 194.992 92.2684 195.036L87.947 197.526C87.801 197.613 87.8083 197.759 87.947 197.854L92.0202 200.205C92.1071 200.249 92.2035 200.273 92.3013 200.273C92.399 200.273 92.4954 200.249 92.5823 200.205L96.911 197.708C97.0862 197.628 97.0789 197.482 96.9183 197.387V197.358ZM100.24 195.438C100.327 195.483 100.423 195.506 100.521 195.506C100.618 195.506 100.715 195.483 100.802 195.438L104.32 193.401C104.473 193.321 104.466 193.175 104.32 193.08L100.247 190.73C100.16 190.685 100.064 190.661 99.9659 190.661C99.8682 190.661 99.7718 190.685 99.6849 190.73L96.1592 192.766C96.0132 192.854 96.0205 193 96.1592 193.087L100.24 195.438ZM118.051 206.745L114 204.424C113.912 204.381 113.816 204.358 113.719 204.358C113.621 204.358 113.525 204.381 113.437 204.424L106.663 208.336C106.517 208.424 106.525 208.57 106.663 208.658L110.737 211.015C110.824 211.059 110.92 211.081 111.018 211.081C111.115 211.081 111.211 211.059 111.299 211.015L118.073 207.103C118.219 207.015 118.211 206.869 118.051 206.774V206.745ZM121.431 211.512L117.357 209.205C117.271 209.16 117.174 209.137 117.076 209.137C116.979 209.137 116.882 209.16 116.795 209.205L112.459 211.709C112.313 211.797 112.321 211.943 112.459 212.037L116.533 214.388C116.62 214.431 116.716 214.453 116.814 214.453C116.911 214.453 117.007 214.431 117.095 214.388L121.431 211.884C121.599 211.782 121.591 211.636 121.431 211.541V211.512ZM138.512 173.342C138.599 173.387 138.695 173.41 138.793 173.41C138.891 173.41 138.987 173.387 139.074 173.342L142.592 171.313C142.746 171.225 142.731 171.079 142.592 170.984L138.519 168.634C138.432 168.59 138.336 168.568 138.238 168.568C138.141 168.568 138.045 168.59 137.957 168.634L134.439 170.699C134.293 170.787 134.3 170.933 134.439 171.021L138.512 173.342ZM128.212 179.291C128.299 179.334 128.396 179.357 128.493 179.357C128.591 179.357 128.687 179.334 128.774 179.291L132.3 177.262C132.446 177.174 132.439 177.028 132.3 176.933L128.227 174.583C128.139 174.54 128.043 174.517 127.946 174.517C127.848 174.517 127.752 174.54 127.665 174.583L124.146 176.612C123.993 176.7 124.007 176.846 124.146 176.941L128.212 179.291ZM105.386 192.496C105.473 192.541 105.569 192.564 105.667 192.564C105.765 192.564 105.861 192.541 105.948 192.496L109.466 190.46C109.62 190.372 109.612 190.233 109.466 190.138L105.393 187.788C105.306 187.743 105.21 187.72 105.112 187.72C105.014 187.72 104.918 187.743 104.831 187.788L101.305 189.825C101.159 189.912 101.167 190.051 101.305 190.146L105.386 192.496ZM133.366 176.357C133.452 176.4 133.547 176.422 133.643 176.422C133.739 176.422 133.834 176.4 133.92 176.357L137.446 174.327C137.592 174.24 137.585 174.094 137.446 173.999L133.373 171.648C133.286 171.603 133.19 171.58 133.092 171.58C132.994 171.58 132.898 171.603 132.811 171.648L129.292 173.678C129.139 173.765 129.154 173.911 129.292 174.006L133.366 176.357ZM123.066 182.299C123.153 182.343 123.249 182.367 123.347 182.367C123.445 182.367 123.541 182.343 123.628 182.299L127.154 180.269C127.3 180.182 127.292 180.036 127.154 179.941L123.08 177.59C122.993 177.547 122.897 177.525 122.799 177.525C122.702 177.525 122.606 177.547 122.518 177.59L119 179.62C118.847 179.707 118.854 179.853 119 179.948L123.066 182.299ZM124.256 211.928C124.168 211.885 124.072 211.862 123.975 211.862C123.877 211.862 123.781 211.885 123.694 211.928L118.277 215.045C118.131 215.132 118.138 215.278 118.277 215.373L122.35 217.724C122.437 217.769 122.534 217.792 122.631 217.792C122.729 217.792 122.826 217.769 122.912 217.724L128.329 214.6C128.482 214.512 128.468 214.366 128.329 214.271L124.256 211.928ZM115.678 186.576C115.766 186.619 115.862 186.642 115.96 186.642C116.057 186.642 116.153 186.619 116.241 186.576L119.766 184.54C119.912 184.452 119.905 184.306 119.766 184.218L115.693 181.868C115.606 181.823 115.51 181.8 115.412 181.8C115.314 181.8 115.218 181.823 115.131 181.868L111.613 183.904C111.459 183.985 111.467 184.131 111.613 184.226L115.678 186.576ZM110.532 189.496C110.619 189.541 110.715 189.564 110.813 189.564C110.911 189.564 111.007 189.541 111.094 189.496L114.62 187.459C114.766 187.372 114.759 187.226 114.62 187.138L110.547 184.788C110.46 184.743 110.364 184.72 110.266 184.72C110.168 184.72 110.072 184.743 109.985 184.788L106.466 186.824C106.313 186.905 106.32 187.051 106.466 187.146L110.532 189.496ZM219.619 156.866C219.532 156.822 219.435 156.798 219.338 156.798C219.24 156.798 219.143 156.822 219.057 156.866L210.355 161.859C210.209 161.947 210.217 162.093 210.355 162.188L214.429 164.538C214.516 164.582 214.612 164.604 214.71 164.604C214.807 164.604 214.903 164.582 214.991 164.538L223.706 159.567C223.86 159.48 223.852 159.334 223.706 159.239L219.619 156.866ZM208.238 163.436C208.152 163.391 208.055 163.368 207.957 163.368C207.86 163.368 207.763 163.391 207.676 163.436L204.158 165.465C204.005 165.553 204.012 165.699 204.158 165.794L208.231 168.144C208.319 168.188 208.415 168.21 208.512 168.21C208.61 168.21 208.706 168.188 208.793 168.144L212.319 166.115C212.465 166.028 212.458 165.882 212.319 165.787L208.238 163.436ZM138.519 202.015L142.038 199.978C142.191 199.891 142.176 199.745 142.038 199.657L137.972 197.299C137.884 197.256 137.788 197.234 137.691 197.234C137.593 197.234 137.497 197.256 137.41 197.299L133.884 199.329C133.738 199.416 133.745 199.562 133.884 199.657L137.957 202.008C138.044 202.052 138.14 202.076 138.237 202.077C138.335 202.078 138.431 202.057 138.519 202.015ZM197.946 169.378C197.858 169.335 197.762 169.313 197.665 169.313C197.567 169.313 197.471 169.335 197.384 169.378L193.858 171.407C193.712 171.495 193.719 171.641 193.858 171.736L197.931 174.086C198.018 174.131 198.115 174.155 198.212 174.155C198.31 174.155 198.406 174.131 198.493 174.086L202.012 172.057C202.165 171.969 202.158 171.824 202.012 171.729L197.946 169.378ZM224.765 153.896C224.677 153.852 224.581 153.83 224.484 153.83C224.386 153.83 224.29 153.852 224.203 153.896L220.684 155.918C220.531 156.005 220.538 156.151 220.684 156.239L224.758 158.596C224.845 158.64 224.941 158.662 225.039 158.662C225.136 158.662 225.232 158.64 225.32 158.596L228.845 156.567C228.991 156.48 228.984 156.334 228.845 156.239L224.765 153.896ZM233.984 153.275L224.093 147.567C224.006 147.522 223.91 147.498 223.812 147.498C223.714 147.498 223.618 147.522 223.531 147.567L220.013 149.603C219.859 149.691 219.867 149.837 220.013 149.924L229.904 155.633C229.991 155.678 230.087 155.701 230.185 155.701C230.283 155.701 230.379 155.678 230.466 155.633L233.992 153.596C234.152 153.516 234.145 153.37 233.984 153.275ZM178.711 180.488C178.624 180.443 178.528 180.42 178.43 180.42C178.332 180.42 178.236 180.443 178.149 180.488L173.813 182.992C173.667 183.08 173.674 183.226 173.813 183.313L177.886 185.664C177.973 185.709 178.07 185.732 178.167 185.732C178.265 185.732 178.362 185.709 178.448 185.664L182.784 183.16C182.93 183.072 182.923 182.926 182.784 182.839L178.711 180.488ZM191.712 172.977C191.625 172.932 191.529 172.909 191.431 172.909C191.333 172.909 191.237 172.932 191.15 172.977L185.733 176.101C185.587 176.189 185.595 176.335 185.733 176.422L189.807 178.78C189.894 178.823 189.99 178.846 190.088 178.846C190.185 178.846 190.281 178.823 190.369 178.78L195.785 175.656C195.931 175.568 195.924 175.422 195.785 175.327L191.712 172.977ZM166.791 187.365C166.703 187.321 166.607 187.299 166.51 187.299C166.412 187.299 166.316 187.321 166.229 187.365L137.242 204.095C137.096 204.183 137.103 204.329 137.242 204.424L141.315 206.774C141.402 206.817 141.499 206.84 141.596 206.84C141.693 206.84 141.79 206.817 141.877 206.774L170.864 190.036C171.01 189.949 171.003 189.803 170.864 189.708L166.791 187.365ZM136.176 205.044C136.089 205 135.993 204.976 135.895 204.976C135.797 204.976 135.701 205 135.614 205.044L131.285 207.548C131.132 207.636 131.139 207.782 131.285 207.869L135.358 210.22C135.445 210.265 135.542 210.288 135.639 210.288C135.737 210.288 135.834 210.265 135.92 210.22L140.278 207.745C140.424 207.658 140.417 207.512 140.278 207.424L136.176 205.044ZM172.747 183.926C172.66 183.883 172.564 183.861 172.466 183.861C172.369 183.861 172.273 183.883 172.185 183.926L167.857 186.43C167.703 186.518 167.711 186.664 167.857 186.759L171.93 189.109C172.017 189.152 172.113 189.175 172.211 189.175C172.308 189.175 172.404 189.152 172.492 189.109L176.828 186.605C176.981 186.525 176.967 186.379 176.828 186.284L172.747 183.926ZM130.219 208.475C130.132 208.432 130.036 208.41 129.938 208.41C129.841 208.41 129.745 208.432 129.657 208.475L125.321 210.979C125.175 211.067 125.183 211.213 125.321 211.307L129.395 213.658C129.482 213.701 129.578 213.724 129.676 213.724C129.773 213.724 129.869 213.701 129.957 213.658L134.285 211.161C134.439 211.074 134.431 210.928 134.285 210.833L130.219 208.475ZM184.668 177.035C184.58 176.992 184.484 176.97 184.387 176.97C184.289 176.97 184.193 176.992 184.106 177.035L179.777 179.532C179.624 179.62 179.631 179.766 179.777 179.86L183.85 182.211C183.938 182.254 184.034 182.277 184.131 182.277C184.229 182.277 184.325 182.254 184.412 182.211L188.748 179.707C188.902 179.62 188.887 179.474 188.748 179.379L184.668 177.035ZM203.092 166.4C203.005 166.355 202.909 166.332 202.811 166.332C202.713 166.332 202.617 166.355 202.53 166.4L199.012 168.429C198.858 168.517 198.866 168.663 199.012 168.758L203.085 171.108C203.172 171.151 203.268 171.174 203.366 171.174C203.463 171.174 203.56 171.151 203.647 171.108L207.173 169.079C207.319 168.991 207.311 168.845 207.173 168.75L203.092 166.4ZM214.37 158.21L217.889 156.18C218.042 156.093 218.035 155.947 217.889 155.852L213.815 153.501C213.728 153.458 213.632 153.436 213.534 153.436C213.437 153.436 213.341 153.458 213.253 153.501L209.728 155.538C209.582 155.626 209.589 155.772 209.728 155.859L213.801 158.217C213.889 158.261 213.987 158.284 214.085 158.284C214.184 158.284 214.282 158.261 214.37 158.217V158.21ZM191.376 158.107L194.902 156.071C195.048 155.983 195.041 155.837 194.902 155.75L190.829 153.399C190.742 153.354 190.645 153.331 190.548 153.331C190.45 153.331 190.354 153.354 190.267 153.399L186.748 155.436C186.595 155.523 186.609 155.662 186.748 155.757L190.814 158.107C190.901 158.152 190.997 158.176 191.095 158.176C191.193 158.176 191.289 158.152 191.376 158.107ZM179.697 178.276L189.989 172.334C190.135 172.247 190.128 172.101 189.989 172.006L185.916 169.656C185.829 169.612 185.732 169.59 185.635 169.59C185.537 169.59 185.441 169.612 185.354 169.656L175.061 175.605C174.915 175.685 174.923 175.831 175.061 175.926L179.135 178.276C179.224 178.316 179.322 178.333 179.42 178.327C179.518 178.32 179.613 178.29 179.697 178.24V178.276ZM208.662 161.217C208.749 161.26 208.845 161.283 208.943 161.283C209.04 161.283 209.136 161.26 209.224 161.217L212.742 159.188C212.896 159.1 212.888 158.954 212.742 158.859L208.669 156.509C208.582 156.464 208.486 156.441 208.388 156.441C208.29 156.441 208.194 156.464 208.107 156.509L204.581 158.538C204.435 158.626 204.443 158.772 204.581 158.867L208.662 161.217ZM203.406 157.867L206.924 155.837C207.078 155.75 207.07 155.604 206.924 155.509L202.851 153.158C202.764 153.115 202.668 153.093 202.57 153.093C202.473 153.093 202.377 153.115 202.289 153.158L198.763 155.195C198.617 155.282 198.625 155.428 198.763 155.516L202.837 157.874C202.928 157.911 203.028 157.927 203.127 157.92C203.225 157.912 203.321 157.881 203.406 157.83V157.867ZM174.55 181.225L178.069 179.189C178.222 179.101 178.208 178.963 178.069 178.868L173.996 176.517C173.909 176.472 173.812 176.449 173.715 176.449C173.617 176.449 173.52 176.472 173.434 176.517L169.893 178.547C169.74 178.634 169.755 178.773 169.893 178.868L173.966 181.218C174.061 181.272 174.169 181.3 174.278 181.299C174.387 181.298 174.493 181.267 174.587 181.211L174.55 181.225ZM197.282 167.765C197.369 167.808 197.465 167.83 197.563 167.83C197.66 167.83 197.756 167.808 197.844 167.765L201.369 165.736C201.515 165.648 201.508 165.502 201.369 165.407L197.296 163.057C197.209 163.013 197.113 162.991 197.015 162.991C196.918 162.991 196.822 163.013 196.734 163.057L193.216 165.093C193.062 165.181 193.07 165.327 193.216 165.414L197.282 167.765ZM148.812 196.066L152.33 194.036C152.483 193.949 152.476 193.803 152.33 193.708L148.257 191.357C148.17 191.314 148.073 191.292 147.976 191.292C147.878 191.292 147.782 191.314 147.695 191.357L144.169 193.387C144.023 193.474 144.03 193.62 144.169 193.715L148.242 196.066C148.331 196.11 148.428 196.133 148.527 196.133C148.626 196.133 148.723 196.11 148.812 196.066ZM153.958 193.095L157.484 191.065C157.63 190.978 157.622 190.832 157.484 190.737L153.418 188.386C153.331 188.342 153.235 188.318 153.137 188.318C153.039 188.318 152.943 188.342 152.856 188.386L149.33 190.416C149.184 190.503 149.191 190.649 149.33 190.744L153.403 193.095C153.49 193.137 153.585 193.159 153.681 193.159C153.777 193.159 153.872 193.137 153.958 193.095ZM143.665 199.037L147.184 197.007C147.337 196.92 147.33 196.774 147.184 196.679L143.118 194.328C143.031 194.285 142.934 194.263 142.837 194.263C142.739 194.263 142.643 194.285 142.556 194.328L139.03 196.358C138.884 196.445 138.891 196.591 139.03 196.686L143.103 199.037C143.19 199.082 143.287 199.105 143.384 199.105C143.482 199.105 143.579 199.082 143.665 199.037ZM164.251 187.153L167.776 185.124C167.922 185.036 167.915 184.89 167.776 184.795L163.703 182.445C163.616 182.401 163.519 182.379 163.422 182.379C163.325 182.379 163.228 182.401 163.141 182.445L159.623 184.481C159.469 184.569 159.477 184.715 159.623 184.802L163.696 187.153C163.782 187.196 163.877 187.219 163.973 187.219C164.07 187.219 164.165 187.196 164.251 187.153ZM159.141 190.124L162.667 188.094C162.813 188.007 162.805 187.861 162.667 187.766L158.528 185.416C158.441 185.371 158.344 185.347 158.247 185.347C158.149 185.347 158.052 185.371 157.966 185.416L154.447 187.445C154.294 187.532 154.301 187.678 154.447 187.766L158.52 190.124C158.611 190.17 158.711 190.195 158.812 190.195C158.914 190.195 159.014 190.17 159.104 190.124H159.141ZM169.433 184.182L172.959 182.145C173.105 182.065 173.098 181.919 172.959 181.824L168.886 179.474C168.799 179.429 168.703 179.405 168.605 179.405C168.507 179.405 168.411 179.429 168.324 179.474L164.747 181.466C164.594 181.554 164.608 181.7 164.747 181.788L168.813 184.138C168.899 184.193 168.997 184.227 169.099 184.234C169.201 184.242 169.304 184.224 169.397 184.182H169.433ZM192.982 140.216C193.069 140.261 193.165 140.284 193.263 140.284C193.361 140.284 193.457 140.261 193.544 140.216L197.07 138.179C197.216 138.099 197.209 137.953 197.07 137.858L195.99 137.23C195.902 137.187 195.806 137.165 195.709 137.165C195.611 137.165 195.515 137.187 195.427 137.23L191.902 139.26C191.756 139.347 191.763 139.493 191.902 139.588L192.982 140.216ZM167.66 156.567C167.746 156.612 167.843 156.635 167.941 156.635C168.038 156.635 168.135 156.612 168.222 156.567L171.74 154.538C171.893 154.45 171.886 154.304 171.74 154.209L167.667 151.859C167.579 151.816 167.483 151.793 167.386 151.793C167.288 151.793 167.192 151.816 167.105 151.859L163.579 153.888C163.433 153.976 163.44 154.122 163.579 154.217L167.66 156.567ZM177.952 150.625C178.039 150.668 178.136 150.691 178.233 150.691C178.331 150.691 178.427 150.668 178.514 150.625L182.04 148.596C182.186 148.508 182.179 148.362 182.04 148.267L177.967 145.917C177.88 145.872 177.783 145.849 177.686 145.849C177.588 145.849 177.491 145.872 177.405 145.917L173.857 147.946C173.704 148.034 173.711 148.18 173.857 148.275L177.952 150.625ZM161.374 160.195C161.462 160.238 161.558 160.261 161.656 160.261C161.753 160.261 161.849 160.238 161.937 160.195L165.455 158.159C165.608 158.071 165.601 157.925 165.455 157.837L161.382 155.48C161.294 155.436 161.198 155.414 161.101 155.414C161.003 155.414 160.907 155.436 160.82 155.48L157.294 157.509C157.148 157.596 157.155 157.742 157.294 157.837L161.374 160.195ZM172.806 153.625C172.893 153.669 172.989 153.691 173.087 153.691C173.184 153.691 173.28 153.669 173.368 153.625L176.894 151.596C177.04 151.508 177.032 151.363 176.894 151.268L172.82 148.917C172.733 148.874 172.637 148.852 172.539 148.852C172.442 148.852 172.346 148.874 172.258 148.917L168.74 150.946C168.587 151.034 168.594 151.18 168.74 151.275L172.806 153.625ZM151.045 166.137C151.132 166.182 151.229 166.205 151.326 166.205C151.424 166.205 151.521 166.182 151.608 166.137L155.126 164.1C155.279 164.013 155.265 163.867 155.126 163.779L151.06 161.429C150.973 161.384 150.877 161.361 150.779 161.361C150.681 161.361 150.585 161.384 150.498 161.429L146.972 163.465C146.826 163.546 146.834 163.692 146.972 163.787L151.045 166.137ZM156.192 163.166C156.279 163.209 156.375 163.232 156.473 163.232C156.57 163.232 156.666 163.209 156.754 163.166L160.272 161.129C160.426 161.042 160.418 160.896 160.272 160.808L156.206 158.458C156.119 158.413 156.023 158.39 155.925 158.39C155.827 158.39 155.731 158.413 155.644 158.458L152.118 160.494C151.972 160.575 151.98 160.721 152.118 160.816L156.192 163.166ZM182.653 146.165C182.74 146.208 182.837 146.231 182.934 146.231C183.032 146.231 183.128 146.208 183.215 146.165L186.741 144.136C186.887 144.048 186.88 143.902 186.741 143.807L185.653 143.18C185.566 143.136 185.47 143.114 185.372 143.114C185.275 143.114 185.179 143.136 185.091 143.18L181.573 145.209C181.419 145.296 181.434 145.442 181.573 145.537L182.653 146.165ZM198.099 137.245C198.185 137.29 198.28 137.313 198.377 137.313C198.473 137.313 198.568 137.29 198.654 137.245L202.18 135.208C202.326 135.121 202.318 134.982 202.18 134.887L201.099 134.259C201.012 134.215 200.916 134.191 200.818 134.191C200.721 134.191 200.624 134.215 200.537 134.259L197.011 136.289C196.866 136.376 196.873 136.522 197.011 136.617L198.099 137.245ZM206.647 142.187C206.734 142.23 206.831 142.252 206.928 142.252C207.026 142.252 207.122 142.23 207.209 142.187L210.735 140.15C210.881 140.063 210.874 139.917 210.735 139.829L206.662 137.471C206.574 137.428 206.478 137.406 206.381 137.406C206.283 137.406 206.187 137.428 206.1 137.471L202.581 139.501C202.428 139.588 202.442 139.734 202.581 139.829L206.647 142.187ZM219.516 155.246L223.042 153.209C223.188 153.129 223.181 152.983 223.042 152.888L218.969 150.538C218.882 150.495 218.785 150.472 218.688 150.472C218.59 150.472 218.494 150.495 218.407 150.538L214.888 152.574C214.735 152.662 214.742 152.808 214.888 152.895L218.962 155.246C219.048 155.29 219.143 155.312 219.239 155.312C219.335 155.312 219.43 155.29 219.516 155.246ZM187.799 143.194C187.887 143.237 187.983 143.26 188.08 143.26C188.178 143.26 188.274 143.237 188.361 143.194L191.887 141.165C192.033 141.077 192.026 140.931 191.887 140.836L190.799 140.209C190.712 140.165 190.616 140.143 190.518 140.143C190.421 140.143 190.325 140.165 190.237 140.209L186.719 142.238C186.573 142.326 186.58 142.471 186.719 142.566L187.799 143.194ZM145.899 169.108C145.986 169.153 146.082 169.176 146.18 169.176C146.278 169.176 146.374 169.153 146.461 169.108L149.98 167.071C150.126 166.984 150.118 166.845 149.98 166.75L145.906 164.4C145.82 164.355 145.723 164.332 145.625 164.332C145.528 164.332 145.431 164.355 145.344 164.4L141.826 166.436C141.68 166.524 141.687 166.663 141.826 166.758L145.899 169.108Z" fill="#455A64"/>
<path d="M166.826 201.101L205.369 178.844L229.093 192.539L190.543 214.795L166.826 201.101Z" fill="#263238"/>
<path d="M81.1502 88.9501L196.018 22.6325C198.259 21.3332 200.098 22.3989 200.098 24.9903V113.951C200.062 114.609 199.871 115.25 199.541 115.82C199.211 116.391 198.752 116.876 198.201 117.236L80.4202 185.24C79.3764 185.839 78.5223 185.35 78.5223 184.145V93.4978C78.5747 92.5872 78.8398 91.7015 79.2961 90.9118C79.7524 90.1221 80.3874 89.4502 81.1502 88.9501Z" fill="#F5F5F5"/>
<path d="M200.135 27.1218V24.9903C200.135 22.3989 198.295 21.3405 196.054 22.6325L81.1502 88.9501C80.3874 89.4502 79.7524 90.1221 79.2961 90.9118C78.8398 91.7016 78.5747 92.5872 78.5223 93.4978V97.3155L200.135 27.1218Z" fill="#B3182A"/>
<path d="M182.996 31.9771C182.586 32.244 182.244 32.6039 182 33.0275C181.755 33.4512 181.613 33.9266 181.587 34.4152C181.587 35.313 182.215 35.678 182.996 35.2254C183.404 34.9593 183.744 34.6004 183.988 34.178C184.231 33.7556 184.372 33.2816 184.397 32.7947C184.397 31.8968 183.769 31.5318 182.996 31.9771Z" fill="white"/>
<path d="M188.573 28.7563C188.164 29.024 187.824 29.3842 187.58 29.8078C187.337 30.2314 187.197 30.7064 187.171 31.1943C187.171 32.0922 187.799 32.4499 188.573 32.0046C188.983 31.7377 189.324 31.3778 189.569 30.9542C189.814 30.5305 189.955 30.0551 189.981 29.5665C189.981 28.6687 189.354 28.3037 188.573 28.7563Z" fill="white"/>
<path d="M194.156 25.5308C193.747 25.799 193.407 26.1592 193.162 26.5826C192.917 27.0059 192.775 27.4807 192.747 27.9689C192.747 28.8668 193.382 29.2317 194.156 28.7792C194.565 28.5134 194.906 28.1548 195.151 27.7324C195.396 27.31 195.538 26.8358 195.565 26.3484C195.565 25.4505 194.93 25.0855 194.156 25.5308Z" fill="white"/>
<path d="M106.885 140.872L102.415 138.291L91.4692 157.25L95.9387 159.83L106.885 140.872Z" fill="#37474F"/>
<path d="M106.894 140.865L104.662 139.577L93.7161 158.536L95.9477 159.824L106.894 140.865Z" fill="#263238"/>
<path d="M79.4689 194.271C77.4323 197.811 67.7894 192.19 69.8187 188.701L94.9661 149.48C95.0339 149.374 95.14 149.298 95.2624 149.268C95.3848 149.238 95.514 149.256 95.6231 149.319L100.674 152.239C100.783 152.301 100.864 152.402 100.899 152.522C100.935 152.642 100.922 152.771 100.864 152.882L79.4689 194.271Z" fill="#B3182A"/>
<path opacity="0.1" d="M79.4684 194.27L100.856 152.881C100.914 152.77 100.927 152.641 100.891 152.522C100.856 152.402 100.775 152.3 100.667 152.239L98.3672 150.91L73.8476 194.497C76.0813 195.599 78.5486 195.869 79.4684 194.27Z" fill="black"/>
<path d="M153.415 101.937C153.415 101.638 153.415 101.346 153.371 101.054C153.327 100.762 153.371 100.477 153.306 100.192C153.24 99.9077 153.305 99.8128 153.247 99.623C153.196 99.1266 153.123 98.6375 153.043 98.1631C153.006 97.9514 152.97 97.7324 152.926 97.5207C152.882 97.309 152.846 97.1192 152.802 96.9221C152.678 96.3819 152.546 95.8564 152.393 95.3527C152.313 95.1118 152.24 94.8709 152.159 94.6227C152.144 94.5874 152.132 94.5507 152.123 94.5132C152.035 94.2796 151.955 94.0533 151.867 93.8343C151.78 93.6154 151.663 93.3234 151.546 93.1044C151.429 92.8854 151.386 92.7467 151.291 92.5715C151.238 92.4401 151.174 92.3131 151.101 92.1919C151.028 92.0386 150.948 91.8853 150.86 91.7393C150.773 91.5933 150.824 91.6663 150.802 91.6371C150.78 91.6079 150.648 91.3743 150.568 91.243C150.488 91.1116 150.459 91.0751 150.408 90.9948C150.033 90.4055 149.614 89.8466 149.152 89.3231L148.918 89.0604L148.721 88.856C148.641 88.7684 148.553 88.6881 148.466 88.6005C148.237 88.3595 147.993 88.1328 147.736 87.9216C147.612 87.8121 147.48 87.7099 147.349 87.615L146.947 87.323C146.739 87.1701 146.522 87.0288 146.298 86.8996L146.123 86.7902H146.086L135.742 80.819L135.684 80.7825C133.7 79.6758 131.459 79.1094 129.187 79.1401C125.8 79.1401 121.975 80.2496 117.924 82.5855C104.011 90.6152 92.7255 110.164 92.7255 126.238C92.7255 134.267 95.5285 139.888 100.062 142.53H100.105L110.456 148.494H110.5L110.624 148.56C110.818 148.675 111.018 148.779 111.223 148.874C111.471 148.998 111.727 149.107 111.953 149.21C112.179 149.312 112.413 149.392 112.646 149.465L113.019 149.575C113.149 149.625 113.283 149.664 113.42 149.691C113.555 149.732 113.691 149.766 113.829 149.794C113.927 149.823 114.027 149.844 114.128 149.859C114.303 149.896 114.493 149.932 114.676 149.954C114.717 149.961 114.759 149.961 114.8 149.954C115.019 149.993 115.238 150.022 115.457 150.042C119.209 150.436 123.574 149.378 128.246 146.684C142.166 138.654 153.451 119.099 153.451 103.032C153.415 102.696 153.415 102.317 153.415 101.937ZM136.531 90.5714C137.078 92.5688 137.345 94.6323 137.327 96.7031C137.327 110.879 126.954 128.822 114.698 135.932C112.906 136.997 110.971 137.8 108.953 138.319C108.409 136.318 108.141 134.253 108.157 132.18C108.157 118.004 118.53 100.061 130.786 92.9511C132.571 91.89 134.498 91.0887 136.509 90.5714H136.531Z" fill="#B3182A"/>
<path opacity="0.1" d="M110.032 148.291L99.9808 142.495C95.4477 139.845 92.6446 134.21 92.6446 126.209C92.6446 119.041 94.8929 111.187 98.6084 103.974L108.959 109.931C105.237 117.143 102.996 124.998 102.996 132.166C102.996 140.02 105.667 145.575 110.032 148.291Z" fill="black"/>
<path opacity="0.4" d="M153.415 101.938C153.415 101.638 153.415 101.346 153.371 101.054C153.327 100.762 153.371 100.478 153.305 100.193C153.239 99.9083 153.305 99.8134 153.247 99.6237C153.196 99.1273 153.123 98.6382 153.042 98.1637C153.006 97.952 152.969 97.733 152.925 97.5213C152.882 97.3097 152.845 97.1199 152.801 96.9228C152.677 96.3826 152.546 95.857 152.393 95.3533C152.312 95.1124 152.239 94.8716 152.159 94.6234C152.144 94.588 152.131 94.5514 152.123 94.5139C152.035 94.2803 151.955 94.054 151.867 93.835C151.779 93.616 151.663 93.324 151.546 93.105C151.429 92.886 151.385 92.7474 151.29 92.5722C151.237 92.4407 151.174 92.3138 151.101 92.1926C151.028 92.0393 150.947 91.886 150.86 91.74C150.772 91.594 150.823 91.667 150.801 91.6378C150.779 91.6086 150.648 91.375 150.568 91.2436C150.487 91.1122 150.458 91.0757 150.407 90.9954C150.033 90.4062 149.613 89.8473 149.152 89.3238L148.918 89.061L148.721 88.8566C148.641 88.769 148.553 88.6887 148.465 88.6011C148.236 88.3602 147.992 88.1335 147.735 87.9223C147.611 87.8128 147.48 87.7106 147.349 87.6157L146.947 87.3237C146.738 87.1708 146.522 87.0294 146.297 86.9003C141.72 84.1191 135.348 84.4476 128.26 88.5281C114.339 96.5578 103.054 116.106 103.054 132.18C103.054 140.319 105.974 146.006 110.609 148.59C110.803 148.705 111.003 148.809 111.208 148.904C111.456 149.028 111.711 149.137 111.938 149.24C112.164 149.342 112.398 149.422 112.631 149.495L113.004 149.605C113.134 149.654 113.268 149.694 113.405 149.721C113.539 149.762 113.676 149.796 113.814 149.824C113.912 149.852 114.012 149.874 114.113 149.889C114.288 149.926 114.478 149.962 114.661 149.984C114.702 149.991 114.744 149.991 114.785 149.984C115.004 150.023 115.223 150.052 115.442 150.072C119.194 150.466 123.559 149.407 128.231 146.714C142.151 138.684 153.436 119.128 153.436 103.062C153.415 102.697 153.415 102.317 153.415 101.938ZM125.676 142.312C122.552 144.115 119.544 145.064 116.975 145.064C112.149 145.064 109.93 141.772 108.945 138.319C108.401 136.319 108.134 134.253 108.149 132.18C108.149 118.004 118.522 100.062 130.778 92.9517C132.57 91.8888 134.505 91.0874 136.523 90.572C137.479 90.3353 138.459 90.2103 139.443 90.1998C147.422 90.1998 148.276 99.2076 148.276 103.084C148.305 117.23 137.932 135.224 125.676 142.312Z" fill="white"/>
<path opacity="0.1" d="M148.305 103.083C148.305 117.259 137.94 135.201 125.676 142.311C122.552 144.114 119.545 145.063 116.975 145.063C112.15 145.063 109.931 141.771 108.946 138.318C110.964 137.8 112.899 136.996 114.69 135.931C126.968 128.843 137.319 110.879 137.319 96.7027C137.338 94.6319 137.07 92.5684 136.524 90.571C137.479 90.3342 138.459 90.2093 139.444 90.1987C147.444 90.2206 148.305 99.2065 148.305 103.083Z" fill="black"/>
<path opacity="0.7" d="M143.924 100.608C143.924 114.784 133.559 132.727 121.295 139.837C118.171 141.64 115.164 142.589 112.594 142.589C112.083 142.59 111.573 142.548 111.069 142.464C110.082 141.246 109.363 139.833 108.959 138.318C108.415 136.318 108.148 134.252 108.163 132.179C108.163 118.003 118.536 100.061 130.792 92.9507C132.584 91.8878 134.518 91.0864 136.537 90.571C137.493 90.3343 138.473 90.2093 139.457 90.1988C139.97 90.1975 140.483 90.239 140.99 90.3229C143.516 93.2938 143.924 98.0605 143.924 100.608Z" fill="white"/>
<path d="M161.57 85.8394V102.001C161.57 103.213 162.424 103.702 163.468 103.096L269.387 41.9464C269.938 41.5859 270.397 41.1008 270.727 40.5302C271.057 39.9596 271.248 39.3195 271.285 38.6616V22.4782C271.285 21.2664 270.43 20.7774 269.387 21.3832L163.468 82.5326C162.914 82.8957 162.454 83.3844 162.124 83.959C161.794 84.5335 161.604 85.1778 161.57 85.8394Z" fill="#E6E6E6"/>
<path d="M163.468 82.5324L182.331 71.6486V92.1899L163.468 103.074C162.424 103.68 161.57 103.191 161.57 101.979V85.8392C161.604 85.1776 161.794 84.5333 162.124 83.9588C162.454 83.3842 162.914 82.8955 163.468 82.5324Z" fill="#B3182A"/>
<path d="M176.089 80.6121C174.9 79.9259 173.396 80.0354 171.856 80.926C170.392 81.8637 169.174 83.1384 168.304 84.6434C167.434 86.1483 166.937 87.8397 166.855 89.5761C166.804 90.7014 167.159 91.8078 167.855 92.6931L165.826 96.1677C165.694 96.4163 165.662 96.7061 165.736 96.9775C165.811 97.249 165.987 97.4816 166.227 97.6276C166.395 97.7217 166.583 97.7719 166.775 97.7736C166.967 97.7738 167.156 97.7232 167.323 97.6271C167.489 97.531 167.628 97.3927 167.724 97.2262L169.731 93.7515C169.948 93.7922 170.168 93.8141 170.388 93.8172C171.284 93.8009 172.161 93.5491 172.929 93.0872C174.39 92.1473 175.605 90.872 176.474 89.3674C177.342 87.8627 177.838 86.1724 177.922 84.4371C177.943 82.6633 177.287 81.3056 176.089 80.6121ZM171.856 91.1966C171.599 91.4725 171.257 91.6532 170.884 91.7093C170.512 91.7654 170.131 91.6934 169.805 91.5053C169.479 91.3172 169.226 91.0239 169.088 90.6735C168.95 90.3231 168.935 89.9362 169.045 89.5761C169.13 88.2254 169.527 86.9128 170.205 85.7413C170.882 84.5698 171.822 83.5712 172.951 82.8239C173.388 82.5451 173.892 82.3865 174.41 82.364C174.624 82.3559 174.836 82.4064 175.024 82.51C175.298 82.7449 175.509 83.0454 175.637 83.3835C175.765 83.7217 175.805 84.0866 175.754 84.4444C175.669 85.7945 175.274 87.1066 174.597 88.2781C173.921 89.4496 172.983 90.4485 171.856 91.1966Z" fill="white"/>
</svg>
